<?xml version="1.0" encoding="UTF-8" standalone="no"?>
<svg width="96px" height="26px" viewBox="0 0 96 26" version="1.1" xmlns="http://www.w3.org/2000/svg" xmlns:xlink="http://www.w3.org/1999/xlink" xmlns:sketch="http://www.bohemiancoding.com/sketch/ns">
    <!-- Generator: Sketch 3.1.1 (8761) - http://www.bohemiancoding.com/sketch -->
    <title>logotype full</title>
    <desc>Created with Sketch.</desc>
    <defs></defs>
    <g id="auth" stroke="none" stroke-width="1" fill="none" fill-rule="evenodd" sketch:type="MSPage">
        <g id="singin" sketch:type="MSArtboardGroup" transform="translate(-33.000000, -28.000000)">
            <g id="logotype-full" sketch:type="MSLayerGroup" transform="translate(33.000000, 28.000000)">
                <path d="M8.26424,24.896 C14.9456533,27.57075 22.58644,24.38225 25.2968533,17.7885 C27.8641333,11.5425 25.1000133,4.44725 19.1218533,1.443 L18.98252,1.36775 L17.9220667,3.9845 L18.0449333,4.0485 C22.5785867,6.46075 24.64832,11.92 22.66852,16.7365 C20.5460933,21.9 14.5626133,24.397 9.33026667,22.3025 C4.09792,20.208 1.56762667,14.303 3.69005333,9.1395 L6.68901333,1.69825 C4.42978667,2.957 2.5916,4.872 1.37838667,7.31725 L1.06197333,8.0875 C-1.64844,14.681 1.58257333,22.2215 8.26424,24.896" id="Fill-1" fill="#FFFFFF" sketch:type="MSShapeGroup"></path>
                <path d="M11.7972267,16.38325 C13.7864,17.1795 16.06108,16.23025 16.8679467,14.26725 C17.5349733,12.6445 16.9918267,10.83025 15.6598,9.80025 L15.5873467,9.745 C15.3532667,10.308 14.2456933,13.057 14.2018667,13.1635 C13.9829867,13.6965 13.40336,14.00575 12.8632533,13.78975 C12.3234,13.5735 12.0622133,12.96425 12.2813467,12.43125 L17.06732,0.61925 C16.1315067,0.3255 15.1728933,0.13025 14.2272,0.04925 L9.65326667,11.37925 C8.8464,13.34225 9.80830667,15.587 11.7972267,16.38325" id="Fill-2" fill="#FFFFFF" sketch:type="MSShapeGroup"></path>
                <path d="M10.0522667,20.54575 C14.36704,22.273 19.3014667,20.214 21.0517467,15.956 C22.6596533,12.044 21.0279333,7.618 17.4065333,5.58475 L17.29684,5.527 L16.2308133,8.15775 L16.31492,8.20525 C18.4996667,9.62675 19.4440933,12.42125 18.4236667,14.90375 C17.26112,17.732 13.984,19.0995 11.1182933,17.95225 C8.25258667,16.80525 6.80377333,13.55825 7.96632,10.73025 L12.32568,0.023 C11.1930267,0.0875 10.1297867,0.3045 9.06173333,0.64775 L5.40132,9.691 C3.65104,13.94925 5.73749333,18.8185 10.0522667,20.54575" id="Fill-3" fill="#FFFFFF" sketch:type="MSShapeGroup"></path>
                <path d="M37.4312667,7.33925 L42.6547467,7.33925 C43.25236,7.33925 43.7871467,7.41575 44.2586,7.56875 C44.7300533,7.722 45.1308267,7.92775 45.4604133,8.1865 C45.7902533,8.44525 46.0413067,8.75 46.2138267,9.10075 C46.3863467,9.45125 46.4727333,9.82125 46.4727333,10.21075 C46.4727333,10.723 46.3399867,11.20425 46.0752533,11.655 C45.8102667,12.10575 45.4034133,12.498 44.8549467,12.832 C45.28004,12.97675 45.6438267,13.1535 45.9458,13.362 C46.2477733,13.57075 46.4927467,13.80025 46.68072,14.05075 C46.8686933,14.30125 47.0057467,14.56975 47.0921333,14.8565 C47.1782667,15.14325 47.2215867,15.4365 47.2215867,15.73725 C47.2215867,16.20475 47.1118933,16.64575 46.89352,17.06025 C46.67464,17.475 46.3802667,17.8365 46.0106533,18.1455 C45.6407867,18.4545 45.21544,18.69925 44.7348667,18.88025 C44.25404,19.061 43.75472,19.1515 43.23716,19.1515 L37.4312667,19.1515 L37.4312667,7.33925 L37.4312667,7.33925 Z M39.4004267,12.13925 L42.3497333,12.13925 C42.68236,12.13925 42.9876267,12.092 43.2647733,11.99725 C43.5421733,11.90275 43.7810667,11.776 43.9814533,11.6175 C44.1813333,11.45875 44.3371333,11.2725 44.4480933,11.05825 C44.5590533,10.844 44.6145333,10.61725 44.6145333,10.37775 C44.6145333,10.16075 44.5745067,9.95925 44.4944533,9.77275 C44.4144,9.58625 44.2925467,9.42475 44.1294,9.28825 C43.9657467,9.15225 43.75624,9.045 43.5006267,8.967 C43.24476,8.88925 42.9412667,8.85025 42.5898933,8.85025 L39.4004267,8.85025 L39.4004267,12.13925 L39.4004267,12.13925 Z M39.4004267,17.64875 L42.67324,17.64875 C42.97496,17.64875 43.2771867,17.61 43.57916,17.53175 C43.88088,17.454 44.15372,17.3345 44.3974267,17.173 C44.64088,17.0115 44.8394933,16.80725 44.9937733,16.55925 C45.1475467,16.31175 45.2248133,16.01825 45.2248133,15.67875 C45.2248133,15.4005 45.1554,15.136 45.0165733,14.8855 C44.878,14.63525 44.6776133,14.41525 44.41592,14.226 C44.15372,14.03725 43.8347733,13.88675 43.4588267,13.7755 C43.0831333,13.66425 42.6577867,13.6085 42.1832933,13.6085 L39.4004267,13.6085 L39.4004267,17.64875 L39.4004267,17.64875 Z" id="Fill-4" fill="#FFFFFF" sketch:type="MSShapeGroup"></path>
                <path d="M37.4312667,7.33925 L42.6547467,7.33925 C43.25236,7.33925 43.7871467,7.41575 44.2586,7.56875 C44.7300533,7.722 45.1308267,7.92775 45.4604133,8.1865 C45.7902533,8.44525 46.0413067,8.75 46.2138267,9.10075 C46.3863467,9.45125 46.4727333,9.82125 46.4727333,10.21075 C46.4727333,10.723 46.3399867,11.20425 46.0752533,11.655 C45.8102667,12.10575 45.4034133,12.498 44.8549467,12.832 C45.28004,12.97675 45.6438267,13.1535 45.9458,13.362 C46.2477733,13.57075 46.4927467,13.80025 46.68072,14.05075 C46.8686933,14.30125 47.0057467,14.56975 47.0921333,14.8565 C47.1782667,15.14325 47.2215867,15.4365 47.2215867,15.73725 C47.2215867,16.20475 47.1118933,16.64575 46.89352,17.06025 C46.67464,17.475 46.3802667,17.8365 46.0106533,18.1455 C45.6407867,18.4545 45.21544,18.69925 44.7348667,18.88025 C44.25404,19.061 43.75472,19.1515 43.23716,19.1515 L37.4312667,19.1515 L37.4312667,7.33925 L37.4312667,7.33925 Z M39.4004267,12.13925 L42.3497333,12.13925 C42.68236,12.13925 42.9876267,12.092 43.2647733,11.99725 C43.5421733,11.90275 43.7810667,11.776 43.9814533,11.6175 C44.1813333,11.45875 44.3371333,11.2725 44.4480933,11.05825 C44.5590533,10.844 44.6145333,10.61725 44.6145333,10.37775 C44.6145333,10.16075 44.5745067,9.95925 44.4944533,9.77275 C44.4144,9.58625 44.2925467,9.42475 44.1294,9.28825 C43.9657467,9.15225 43.75624,9.045 43.5006267,8.967 C43.24476,8.88925 42.9412667,8.85025 42.5898933,8.85025 L39.4004267,8.85025 L39.4004267,12.13925 L39.4004267,12.13925 Z M39.4004267,17.64875 L42.67324,17.64875 C42.97496,17.64875 43.2771867,17.61 43.57916,17.53175 C43.88088,17.454 44.15372,17.3345 44.3974267,17.173 C44.64088,17.0115 44.8394933,16.80725 44.9937733,16.55925 C45.1475467,16.31175 45.2248133,16.01825 45.2248133,15.67875 C45.2248133,15.4005 45.1554,15.136 45.0165733,14.8855 C44.878,14.63525 44.6776133,14.41525 44.41592,14.226 C44.15372,14.03725 43.8347733,13.88675 43.4588267,13.7755 C43.0831333,13.66425 42.6577867,13.6085 42.1832933,13.6085 L39.4004267,13.6085 L39.4004267,17.64875 L39.4004267,17.64875 Z" id="Stroke-5" stroke="#FFFFFF" sketch:type="MSShapeGroup"></path>
                <path d="M49.34072,10.65325 L51.2911333,10.65325 L51.2544,11.2375 C51.5191333,10.98725 51.8119867,10.8035 52.1324533,10.68675 C52.45292,10.57 52.8164533,10.5115 53.2233067,10.5115 C53.3281867,10.5115 53.46524,10.52675 53.63472,10.55725 C53.8042,10.588 53.9752,10.63375 54.14772,10.695 L54.14772,12.35625 C53.6055867,12.18375 53.2848667,12.0975 53.18632,12.0975 C52.8843467,12.0975 52.6148,12.15175 52.3774267,12.26025 C52.1400533,12.36875 51.9396667,12.5135 51.77652,12.69425 C51.61312,12.87525 51.4882267,13.084 51.4020933,13.32025 C51.31596,13.55725 51.2728933,13.806 51.2728933,14.06775 L51.2728933,19.1515 L49.34072,19.1515 L49.34072,10.65325 L49.34072,10.65325 Z" id="Fill-6" fill="#FFFFFF" sketch:type="MSShapeGroup"></path>
                <path d="M49.34072,10.65325 L51.2911333,10.65325 L51.2544,11.2375 C51.5191333,10.98725 51.8119867,10.8035 52.1324533,10.68675 C52.45292,10.57 52.8164533,10.5115 53.2233067,10.5115 C53.3281867,10.5115 53.46524,10.52675 53.63472,10.55725 C53.8042,10.588 53.9752,10.63375 54.14772,10.695 L54.14772,12.35625 C53.6055867,12.18375 53.2848667,12.0975 53.18632,12.0975 C52.8843467,12.0975 52.6148,12.15175 52.3774267,12.26025 C52.1400533,12.36875 51.9396667,12.5135 51.77652,12.69425 C51.61312,12.87525 51.4882267,13.084 51.4020933,13.32025 C51.31596,13.55725 51.2728933,13.806 51.2728933,14.06775 L51.2728933,19.1515 L49.34072,19.1515 L49.34072,10.65325 L49.34072,10.65325 Z" id="Stroke-7" stroke="#FFFFFF" sketch:type="MSShapeGroup"></path>
                <path d="M55.7584133,14.91075 C55.7584133,14.30425 55.8536667,13.73375 56.0449333,13.1995 C56.2359467,12.665 56.5163867,12.199 56.886,11.801 C57.2558667,11.40325 57.71212,11.08875 58.2542533,10.85775 C58.79664,10.627 59.41908,10.5115 60.1215733,10.5115 C60.82432,10.5115 61.4500533,10.627 61.99852,10.85775 C62.5469867,11.08875 63.0075467,11.40325 63.3807067,11.801 C63.75336,12.199 64.03836,12.665 64.2357067,13.1995 C64.4328,13.73375 64.5316,14.30425 64.5316,14.91075 C64.5316,15.5175 64.4328,16.0865 64.2357067,16.61775 C64.03836,17.14925 63.75336,17.614 63.3807067,18.01175 C63.0075467,18.41 62.5469867,18.723 61.99852,18.951 C61.4500533,19.17925 60.82432,19.29325 60.1215733,19.29325 C59.41908,19.29325 58.79664,19.17925 58.2542533,18.951 C57.71212,18.723 57.2558667,18.41 56.886,18.01175 C56.5163867,17.614 56.2359467,17.14925 56.0449333,16.61775 C55.8536667,16.0865 55.7584133,15.5175 55.7584133,14.91075 L55.7584133,14.91075 Z M57.6812133,14.91075 C57.6812133,15.31125 57.73796,15.69 57.85196,16.046 C57.9662133,16.40225 58.12784,16.714 58.3373467,16.981 C58.5471067,17.248 58.80272,17.45825 59.1049467,17.61125 C59.4066667,17.76425 59.74588,17.841 60.1215733,17.841 C60.4977733,17.841 60.8367333,17.76425 61.1387067,17.61125 C61.4404267,17.45825 61.6980667,17.248 61.9106133,16.981 C62.1234133,16.714 62.2863067,16.40225 62.40056,16.046 C62.51456,15.69 62.57156,15.31125 62.57156,14.91075 C62.57156,14.5045 62.51456,14.12325 62.40056,13.76725 C62.2863067,13.411 62.1234133,13.09925 61.9106133,12.832 C61.6980667,12.565 61.4404267,12.3535 61.1387067,12.19775 C60.8367333,12.042 60.4977733,11.964 60.1215733,11.964 C59.74588,11.964 59.4066667,12.042 59.1049467,12.19775 C58.80272,12.3535 58.5471067,12.565 58.3373467,12.832 C58.12784,13.09925 57.9662133,13.411 57.85196,13.76725 C57.73796,14.12325 57.6812133,14.5045 57.6812133,14.91075 L57.6812133,14.91075 Z" id="Fill-8" fill="#FFFFFF" sketch:type="MSShapeGroup"></path>
                <path d="M55.7584133,14.91075 C55.7584133,14.30425 55.8536667,13.73375 56.0449333,13.1995 C56.2359467,12.665 56.5163867,12.199 56.886,11.801 C57.2558667,11.40325 57.71212,11.08875 58.2542533,10.85775 C58.79664,10.627 59.41908,10.5115 60.1215733,10.5115 C60.82432,10.5115 61.4500533,10.627 61.99852,10.85775 C62.5469867,11.08875 63.0075467,11.40325 63.3807067,11.801 C63.75336,12.199 64.03836,12.665 64.2357067,13.1995 C64.4328,13.73375 64.5316,14.30425 64.5316,14.91075 C64.5316,15.5175 64.4328,16.0865 64.2357067,16.61775 C64.03836,17.14925 63.75336,17.614 63.3807067,18.01175 C63.0075467,18.41 62.5469867,18.723 61.99852,18.951 C61.4500533,19.17925 60.82432,19.29325 60.1215733,19.29325 C59.41908,19.29325 58.79664,19.17925 58.2542533,18.951 C57.71212,18.723 57.2558667,18.41 56.886,18.01175 C56.5163867,17.614 56.2359467,17.14925 56.0449333,16.61775 C55.8536667,16.0865 55.7584133,15.5175 55.7584133,14.91075 L55.7584133,14.91075 Z M57.6812133,14.91075 C57.6812133,15.31125 57.73796,15.69 57.85196,16.046 C57.9662133,16.40225 58.12784,16.714 58.3373467,16.981 C58.5471067,17.248 58.80272,17.45825 59.1049467,17.61125 C59.4066667,17.76425 59.74588,17.841 60.1215733,17.841 C60.4977733,17.841 60.8367333,17.76425 61.1387067,17.61125 C61.4404267,17.45825 61.6980667,17.248 61.9106133,16.981 C62.1234133,16.714 62.2863067,16.40225 62.40056,16.046 C62.51456,15.69 62.57156,15.31125 62.57156,14.91075 C62.57156,14.5045 62.51456,14.12325 62.40056,13.76725 C62.2863067,13.411 62.1234133,13.09925 61.9106133,12.832 C61.6980667,12.565 61.4404267,12.3535 61.1387067,12.19775 C60.8367333,12.042 60.4977733,11.964 60.1215733,11.964 C59.74588,11.964 59.4066667,12.042 59.1049467,12.19775 C58.80272,12.3535 58.5471067,12.565 58.3373467,12.832 C58.12784,13.09925 57.9662133,13.411 57.85196,13.76725 C57.73796,14.12325 57.6812133,14.5045 57.6812133,14.91075 L57.6812133,14.91075 Z" id="Stroke-9" stroke="#FFFFFF" sketch:type="MSShapeGroup"></path>
                <path d="M72.0771333,13.2495 L70.26504,19.1515 L68.3607333,19.1515 L65.65184,10.65325 L67.6394933,10.65325 L69.3221333,16.41325 L71.0784933,10.65325 L73.07552,10.65325 L74.7857733,16.40475 L76.51452,10.65325 L78.5021733,10.65325 L75.8120267,19.1515 L73.8980933,19.1515 L72.0771333,13.2495 L72.0771333,13.2495 Z" id="Fill-10" fill="#FFFFFF" sketch:type="MSShapeGroup"></path>
                <path d="M72.0771333,13.2495 L70.26504,19.1515 L68.3607333,19.1515 L65.65184,10.65325 L67.6394933,10.65325 L69.3221333,16.41325 L71.0784933,10.65325 L73.07552,10.65325 L74.7857733,16.40475 L76.51452,10.65325 L78.5021733,10.65325 L75.8120267,19.1515 L73.8980933,19.1515 L72.0771333,13.2495 L72.0771333,13.2495 Z" id="Stroke-11" stroke="#FFFFFF" sketch:type="MSShapeGroup"></path>
                <path d="M81.7304,15.32825 C81.7488933,15.67325 81.82312,15.99875 81.95232,16.30475 C82.0817733,16.611 82.2527733,16.88075 82.4655733,17.1145 C82.67812,17.34825 82.9261333,17.53325 83.2096133,17.66975 C83.49284,17.806 83.8011467,17.874 84.13428,17.874 C85.12456,17.874 85.8425067,17.46 86.2876133,16.632 L88.15012,16.632 C88.0386533,16.967 87.8864,17.27275 87.6931067,17.54875 C87.42812,17.927 87.1106933,18.24725 86.74108,18.5085 C86.3714667,18.77025 85.96284,18.96925 85.5162133,19.1055 C85.0693333,19.24175 84.6087733,19.31 84.13428,19.31 C83.4561067,19.31 82.84456,19.1875 82.29888,18.94275 C81.7534533,18.69775 81.2896,18.3695 80.9075733,17.9575 C80.5252933,17.546 80.2294,17.066 80.0201467,16.51775 C79.8103867,15.9695 79.70576,15.39225 79.70576,14.7855 C79.70576,14.21775 79.8088667,13.67525 80.0155867,13.15775 C80.2218,12.64 80.5161733,12.185 80.8984533,11.79275 C81.28048,11.4005 81.74256,11.08875 82.2852,10.85775 C82.8273333,10.627 83.4376133,10.5115 84.1155333,10.5115 C84.7686267,10.5115 85.3588933,10.61575 85.88608,10.8245 C86.4130133,11.03325 86.86116,11.321 87.2310267,11.6885 C87.6008933,12.05575 87.8858933,12.49275 88.0860267,12.999 C88.2864133,13.5055 88.3867333,14.05375 88.3867333,14.6435 L88.3867333,15.32825 L81.7304,15.32825 L81.7304,15.32825 Z M86.39908,13.9925 C86.3681733,13.70325 86.29116,13.43475 86.16804,13.18675 C86.0446667,12.93925 85.8812667,12.725 85.67784,12.54425 C85.4746667,12.36325 85.2327333,12.22125 84.9522933,12.11825 C84.6718533,12.0155 84.3620267,11.964 84.0230667,11.964 C83.71476,11.964 83.42824,12.018 83.1632533,12.12675 C82.8982667,12.23525 82.6657067,12.38275 82.4655733,12.56925 C82.2651867,12.75575 82.1015333,12.97125 81.9753733,13.216 C81.84896,13.461 81.7704267,13.71975 81.73952,13.9925 L86.39908,13.9925 L86.39908,13.9925 Z" id="Fill-12" fill="#FFFFFF" sketch:type="MSShapeGroup"></path>
                <path d="M81.7304,15.32825 C81.7488933,15.67325 81.82312,15.99875 81.95232,16.30475 C82.0817733,16.611 82.2527733,16.88075 82.4655733,17.1145 C82.67812,17.34825 82.9261333,17.53325 83.2096133,17.66975 C83.49284,17.806 83.8011467,17.874 84.13428,17.874 C85.12456,17.874 85.8425067,17.46 86.2876133,16.632 L88.15012,16.632 C88.0386533,16.967 87.8864,17.27275 87.6931067,17.54875 C87.42812,17.927 87.1106933,18.24725 86.74108,18.5085 C86.3714667,18.77025 85.96284,18.96925 85.5162133,19.1055 C85.0693333,19.24175 84.6087733,19.31 84.13428,19.31 C83.4561067,19.31 82.84456,19.1875 82.29888,18.94275 C81.7534533,18.69775 81.2896,18.3695 80.9075733,17.9575 C80.5252933,17.546 80.2294,17.066 80.0201467,16.51775 C79.8103867,15.9695 79.70576,15.39225 79.70576,14.7855 C79.70576,14.21775 79.8088667,13.67525 80.0155867,13.15775 C80.2218,12.64 80.5161733,12.185 80.8984533,11.79275 C81.28048,11.4005 81.74256,11.08875 82.2852,10.85775 C82.8273333,10.627 83.4376133,10.5115 84.1155333,10.5115 C84.7686267,10.5115 85.3588933,10.61575 85.88608,10.8245 C86.4130133,11.03325 86.86116,11.321 87.2310267,11.6885 C87.6008933,12.05575 87.8858933,12.49275 88.0860267,12.999 C88.2864133,13.5055 88.3867333,14.05375 88.3867333,14.6435 L88.3867333,15.32825 L81.7304,15.32825 L81.7304,15.32825 Z M86.39908,13.9925 C86.3681733,13.70325 86.29116,13.43475 86.16804,13.18675 C86.0446667,12.93925 85.8812667,12.725 85.67784,12.54425 C85.4746667,12.36325 85.2327333,12.22125 84.9522933,12.11825 C84.6718533,12.0155 84.3620267,11.964 84.0230667,11.964 C83.71476,11.964 83.42824,12.018 83.1632533,12.12675 C82.8982667,12.23525 82.6657067,12.38275 82.4655733,12.56925 C82.2651867,12.75575 82.1015333,12.97125 81.9753733,13.216 C81.84896,13.461 81.7704267,13.71975 81.73952,13.9925 L86.39908,13.9925 L86.39908,13.9925 Z" id="Stroke-13" stroke="#FFFFFF" sketch:type="MSShapeGroup"></path>
                <path d="M93.233,8.24075 L93.233,10.65325 L94.6194933,10.65325 L94.6194933,12.08075 L93.233,12.08075 L93.233,17.13125 C93.233,17.415 93.29608,17.61 93.4224933,17.7155 C93.5486533,17.82125 93.7135733,17.874 93.917,17.874 C93.9970533,17.874 94.1080133,17.8645 94.2496267,17.845 C94.3914933,17.8255 94.5885867,17.7905 94.8414133,17.7405 L94.8414133,19.118 C94.59492,19.17925 94.3451333,19.2265 94.09256,19.26 C93.8397333,19.29325 93.6086933,19.31 93.39944,19.31 C93.1157067,19.31 92.8459067,19.278 92.5902933,19.214 C92.33468,19.15025 92.10972,19.0485 91.9154133,18.90925 C91.72136,18.77025 91.56708,18.5895 91.4533333,18.36675 C91.33908,18.144 91.28208,17.8715 91.28208,17.54875 L91.28208,12.08075 L89.8864667,12.08075 L89.8864667,10.65325 L91.28208,10.65325 L91.28208,8.24075 L93.233,8.24075 L93.233,8.24075 Z" id="Fill-14" fill="#FFFFFF" sketch:type="MSShapeGroup"></path>
                <path d="M93.233,8.24075 L93.233,10.65325 L94.6194933,10.65325 L94.6194933,12.08075 L93.233,12.08075 L93.233,17.13125 C93.233,17.415 93.29608,17.61 93.4224933,17.7155 C93.5486533,17.82125 93.7135733,17.874 93.917,17.874 C93.9970533,17.874 94.1080133,17.8645 94.2496267,17.845 C94.3914933,17.8255 94.5885867,17.7905 94.8414133,17.7405 L94.8414133,19.118 C94.59492,19.17925 94.3451333,19.2265 94.09256,19.26 C93.8397333,19.29325 93.6086933,19.31 93.39944,19.31 C93.1157067,19.31 92.8459067,19.278 92.5902933,19.214 C92.33468,19.15025 92.10972,19.0485 91.9154133,18.90925 C91.72136,18.77025 91.56708,18.5895 91.4533333,18.36675 C91.33908,18.144 91.28208,17.8715 91.28208,17.54875 L91.28208,12.08075 L89.8864667,12.08075 L89.8864667,10.65325 L91.28208,10.65325 L91.28208,8.24075 L93.233,8.24075 L93.233,8.24075 Z" id="Stroke-15" stroke="#FFFFFF" sketch:type="MSShapeGroup"></path>
            </g>
        </g>
    </g>
</svg>