<?xml version="1.0" encoding="UTF-8" standalone="no"?>
<svg width="19px" height="19px" viewBox="0 0 19 19" version="1.1" xmlns="http://www.w3.org/2000/svg" xmlns:xlink="http://www.w3.org/1999/xlink" xmlns:sketch="http://www.bohemiancoding.com/sketch/ns">
    <!-- Generator: Sketch 3.1.1 (8761) - http://www.bohemiancoding.com/sketch -->
    <title>Fill 1</title>
    <desc>Created with Sketch.</desc>
    <defs></defs>
    <g id="products" stroke="none" stroke-width="1" fill="none" fill-rule="evenodd" sketch:type="MSPage">
        <g sketch:type="MSArtboardGroup" transform="translate(-25.000000, -25.000000)" id="logotype-symbol" fill="#2392D0">
            <g sketch:type="MSLayerGroup">
                <path d="M31.3942257,42.9934536 C35.9927206,44.8581395 41.251506,42.6352959 43.1169529,38.0385027 C44.883888,33.6841414 42.9814774,28.7377306 38.8669979,26.6433357 L38.7711015,26.5908757 L38.0412425,28.4151272 L38.1258057,28.4597444 C41.2461009,30.14143 42.6705986,33.9473133 41.3079977,37.3051073 C39.8472336,40.9048102 35.7290926,42.6455788 32.1279205,41.1854107 C28.5267484,39.7252426 26.7852694,35.6086074 28.2460334,32.0089044 L30.3100731,26.8212817 C28.7551562,27.6988117 27.4900209,29.0338425 26.6550246,30.7385338 L26.4372526,31.2755089 C24.5718056,35.8721278 26.7955564,41.128942 31.3942257,42.9934536 Z M33.8258102,37.0588412 C35.1948624,37.6139421 36.760415,36.9521781 37.3157425,35.5836845 C37.7748248,34.4523941 37.4010031,33.1876006 36.4842334,32.4695423 L36.4343672,32.4310251 C36.2732612,32.8235172 35.5109719,34.739966 35.4808081,34.8142118 C35.3301635,35.1857896 34.9312344,35.4013813 34.559505,35.2507982 C34.18795,35.1000409 34.0081878,34.6753059 34.1590067,34.3037281 L37.4529616,26.0690634 C36.8088863,25.8642773 36.149119,25.72816 35.4982438,25.6716913 L32.3502258,33.5703327 C31.7948984,34.9388263 32.4569324,36.5037403 33.8258102,37.0588412 Z M32.6248383,39.960703 C35.5944889,41.164845 38.9906171,39.7294255 40.1952505,36.7609864 C41.3018952,34.0337591 40.1788609,30.9481998 37.6864258,29.5307318 L37.6109291,29.4904718 L36.8772343,31.3244833 L36.9351209,31.3575977 C38.4387768,32.3485878 39.0887801,34.2967567 38.3864696,36.0274166 C37.5863448,37.9991141 35.330861,38.9524585 33.3585331,38.1526601 C31.3862053,37.3530359 30.3890569,35.0894094 31.1891817,33.1178862 L34.1895192,25.6533913 C33.4099685,25.6983571 32.6781916,25.8496373 31.9431019,26.088932 L29.4238158,32.3933793 C28.2191824,35.3619927 29.6551877,38.7565611 32.6248383,39.960703 Z" id="Fill-1" sketch:type="MSShapeGroup"></path>
            </g>
        </g>
    </g>
</svg>